<svg width="32" height="32" viewBox="0 0 32 32" fill="none" xmlns="http://www.w3.org/2000/svg">
<defs>
<linearGradient id="maskGradient" x1="0%" y1="0%" x2="100%" y2="100%">
<stop offset="0%" stop-color="#2e2e3e"/>
<stop offset="50%" stop-color="#44406c"/>
<stop offset="100%" stop-color="#764ba2"/>
</linearGradient>
<linearGradient id="eyeGradient" x1="0%" y1="0%" x2="100%" y2="100%">
<stop offset="0%" stop-color="#fff700"/>
<stop offset="100%" stop-color="#ffc300"/>
</linearGradient>
</defs>
<rect width="32" height="32" rx="4" fill="url(#maskGradient)"/>
<path d="M6 10C6 7.5 8 6 10.5 6H21.5C24 6 26 7.5 26 10V18C26 20.5 24 22 21.5 22H18.5L16 25L13.5 22H10.5C8 22 6 20.5 6 18V10Z" fill="#0c0c1a" fill-opacity="0.95"/>
<path d="M6 16C6 12 10 8 16 8C22 8 26 12 26 16V18C26 20 24 22 21 22H11C8 22 6 20 6 18V16Z" fill="#1a1a2e" fill-opacity="0.8"/>
<ellipse cx="12" cy="14" rx="2.5" ry="4" fill="url(#eyeGradient)"/>
<ellipse cx="20" cy="14" rx="2.5" ry="4" fill="url(#eyeGradient)"/>
<ellipse cx="12" cy="14.5" rx="1" ry="1.5" fill="#1a1a2e"/>
<ellipse cx="20" cy="14.5" rx="1" ry="1.5" fill="#1a1a2e"/>
<path d="M14 18C14.5 19 15.5 19.5 16 19.5C16.5 19.5 17.5 19 18 18" stroke="#fff700" stroke-width="1.5" stroke-linecap="round" fill="none"/>
<path d="M9 12C9 11 10 10 11.5 10C13 10 14 11 14 12" stroke="#764ba2" stroke-width="1" fill="none" opacity="0.6"/>
<path d="M18 12C18 11 19 10 20.5 10C22 10 23 11 23 12" stroke="#764ba2" stroke-width="1" fill="none" opacity="0.6"/>
<circle cx="26" cy="6" r="2.5" fill="#ffd700" opacity="0.9"/>
<path d="M24.5 4.5L27.5 7.5M27.5 4.5L24.5 7.5" stroke="#2e2e3e" stroke-width="0.8"/>
</svg>
